<?xml version="1.0" encoding="iso-8859-1"?>
<!-- Generator: Adobe Illustrator 19.0.0, SVG Export Plug-In . SVG Version: 6.00 Build 0)  -->
<svg version="1.1" id="Layer_1" xmlns="http://www.w3.org/2000/svg" xmlns:xlink="http://www.w3.org/1999/xlink" x="0px" y="0px"
	 viewBox="0 0 512 512" style="enable-background:new 0 0 512 512;" xml:space="preserve">
<circle style="fill:#98C8ED;" cx="256" cy="257.882" r="152.216"/>
<g>
	<path style="fill:#7AB9E8;" d="M256,105.671v304.432c84.066,0,152.216-68.15,152.216-152.216S340.066,105.671,256,105.671z"/>
	<path style="fill:#7AB9E8;" d="M300.025,510.113l-7.095-40.903c24.698-4.284,48.247-12.81,69.995-25.341l20.728,35.967
		C357.672,494.808,329.536,504.995,300.025,510.113z"/>
</g>
<path style="fill:#98C8ED;" d="M211.186,509.974c-29.486-5.21-57.585-15.482-83.517-30.53l20.838-35.905
	c21.707,12.598,45.226,21.197,69.902,25.556L211.186,509.974z"/>
<path style="fill:#7AB9E8;" d="M451.807,422.804l-31.74-26.757c16.208-19.226,28.79-40.884,37.394-64.375l38.98,14.281
	C486.166,374.008,471.148,399.864,451.807,422.804z"/>
<path style="fill:#98C8ED;" d="M59.695,422.215c-19.279-23.008-34.221-48.922-44.415-77.019l39.025-14.156
	c8.534,23.527,21.053,45.233,37.21,64.513L59.695,422.215z"/>
<path style="fill:#7AB9E8;" d="M511.999,258.48l-41.514-0.165v-0.429c0-25.224-4.33-49.908-12.871-73.37l39.009-14.2
	C506.826,198.343,512,227.807,512,257.887L511.999,258.48z"/>
<path style="fill:#98C8ED;" d="M41.514,257.652L0,257.609c0.032-30.07,5.233-59.519,15.461-87.528l38.995,14.238
	C45.895,207.767,41.54,232.44,41.514,257.652z"/>
<path style="fill:#7AB9E8;" d="M420.335,120.043c-16.161-19.244-35.353-35.368-57.044-47.923l20.797-35.93
	c25.875,14.978,48.766,34.209,68.036,57.156L420.335,120.043z"/>
<g>
	<path style="fill:#98C8ED;" d="M91.782,119.906L60.013,93.181c19.29-22.932,42.201-42.145,68.093-57.105l20.766,35.947
		C127.167,84.564,107.96,100.673,91.782,119.906z"/>
	<path style="fill:#98C8ED;" d="M293.361,46.639c-12.238-2.15-24.802-3.239-37.337-3.239c-0.007,0-0.014,0-0.022,0
		c-12.48,0-24.983,1.078-37.161,3.203l-7.139-40.895c14.53-2.535,29.434-3.821,44.299-3.821c0.008,0,0.018,0,0.026,0
		c14.935,0,29.912,1.299,44.515,3.864L293.361,46.639z"/>
</g>
<path style="fill:#7AB9E8;" d="M256,84.915c-95.377,0-172.973,77.596-172.973,172.973S160.623,430.861,256,430.861
	s172.973-77.596,172.973-172.973S351.377,84.915,256,84.915z M385.814,237.131h-54.211c-1.663-35.238-7.528-68.038-16.958-93.97
	c-0.444-1.221-0.894-2.399-1.346-3.572C351.196,158.02,378.964,194.132,385.814,237.131z M256.026,389.347c-0.006,0-0.011,0-0.015,0
	c-1.85-0.231-11.224-6.775-20.34-32.876c-7.467-21.378-12.211-48.47-13.731-77.827h68.122c-1.522,29.357-6.266,56.449-13.731,77.827
	C267.214,382.566,257.842,389.113,256.026,389.347z M221.938,237.131c1.522-29.357,6.266-56.449,13.731-77.827
	c9.115-26.095,18.487-32.642,20.301-32.876c0.006,0,0.011,0,0.015,0c1.85,0.231,11.224,6.775,20.34,32.876
	c7.467,21.378,12.211,48.47,13.731,77.827H221.938z M198.699,139.588c-0.452,1.172-0.902,2.351-1.346,3.572
	c-9.429,25.932-15.295,58.732-16.958,93.97h-54.21C133.034,194.132,160.803,158.02,198.699,139.588z M126.184,278.644h54.211
	c1.663,35.238,7.528,68.038,16.958,93.97c0.444,1.22,0.894,2.399,1.346,3.572C160.803,357.754,133.034,321.641,126.184,278.644z
	 M313.3,376.186c0.452-1.172,0.902-2.351,1.346-3.572c9.429-25.932,15.295-58.732,16.958-93.97h54.211
	C378.964,321.641,351.196,357.754,313.3,376.186z"/>
<path style="fill:#579ADF;" d="M256,84.915v41.516c1.875,0.253,11.229,6.821,20.329,32.873c7.467,21.378,12.211,48.47,13.731,77.827
	H256v41.514h34.06c-1.522,29.357-6.266,56.449-13.731,77.827c-9.115,26.095-18.487,32.642-20.301,32.876c-0.006,0-0.011,0-0.015,0
	c-0.003,0-0.008-0.001-0.011-0.003v41.516c95.377,0,172.973-77.596,172.973-172.973S351.377,84.915,256,84.915z M385.814,237.131
	h-54.211c-1.663-35.238-7.528-68.038-16.958-93.97c-0.444-1.221-0.894-2.399-1.346-3.572
	C351.196,158.02,378.964,194.132,385.814,237.131z M313.3,376.186c0.452-1.172,0.902-2.351,1.346-3.572
	c9.429-25.932,15.295-58.732,16.958-93.97h54.211C378.964,321.641,351.196,357.754,313.3,376.186z"/>
<path style="fill:#7AB9E8;" d="M256.12,1.889v41.514c12.504,0.006,25.034,1.093,37.24,3.238l7.179-40.889
	C285.969,3.192,271.024,1.893,256.12,1.889z"/>
<g>
</g>
<g>
</g>
<g>
</g>
<g>
</g>
<g>
</g>
<g>
</g>
<g>
</g>
<g>
</g>
<g>
</g>
<g>
</g>
<g>
</g>
<g>
</g>
<g>
</g>
<g>
</g>
<g>
</g>
</svg>
