<?xml version="1.0" encoding="iso-8859-1"?>
<!-- Generator: Adobe Illustrator 19.0.0, SVG Export Plug-In . SVG Version: 6.00 Build 0)  -->
<svg version="1.1" id="Layer_1" xmlns="http://www.w3.org/2000/svg" xmlns:xlink="http://www.w3.org/1999/xlink" x="0px" y="0px"
	 viewBox="0 0 512 512" style="enable-background:new 0 0 512 512;" xml:space="preserve">
<rect x="218.718" y="367.479" style="fill:#57555C;" width="74.564" height="144.521"/>
<rect x="256" y="367.479" style="fill:#2B292C;" width="37.282" height="144.521"/>
<path style="fill:#FF7953;" d="M400.95,143.139l-42.025,255.749H153.074L111.05,143.139l0.031-1.455
	c0.848-38.025,16.291-73.653,43.501-100.298C181.834,14.699,217.849,0,256,0s74.166,14.699,101.418,41.386
	c27.21,26.645,42.653,62.273,43.501,100.298L400.95,143.139z"/>
<path style="fill:#FF4F18;" d="M400.95,143.139l-42.025,255.749H256V0c38.151,0,74.166,14.699,101.418,41.386
	c27.21,26.645,42.653,62.273,43.501,100.298L400.95,143.139z"/>
<g>
	<path style="fill:#FFFFFF;" d="M330.218,142.239H181.782c1.727-39.501,34.288-71.004,74.218-71.004
		S328.491,102.737,330.218,142.239z"/>
	<polygon style="fill:#FFFFFF;" points="331.035,188.451 331.035,238.359 299.626,238.359 299.626,219.859 212.374,219.859 
		212.374,238.359 180.965,238.359 180.965,188.451 	"/>
</g>
<circle style="fill:#E70020;" cx="256" cy="320.89" r="32.455"/>
<path style="fill:#990013;" d="M256,353.345v-64.911c17.924,0,32.455,14.532,32.455,32.455
	C288.455,338.814,273.924,353.345,256,353.345z"/>
<g>
	<path style="fill:#C8C6CD;" d="M330.218,142.239H256V71.234C295.931,71.234,328.491,102.737,330.218,142.239z"/>
	<polygon style="fill:#C8C6CD;" points="331.035,188.451 331.035,238.359 299.626,238.359 299.626,219.859 256,219.859 256,188.451 
			"/>
</g>
<g>
</g>
<g>
</g>
<g>
</g>
<g>
</g>
<g>
</g>
<g>
</g>
<g>
</g>
<g>
</g>
<g>
</g>
<g>
</g>
<g>
</g>
<g>
</g>
<g>
</g>
<g>
</g>
<g>
</g>
</svg>
